<svg width="100" height="66" viewBox="0 0 100 66" fill="none" xmlns="http://www.w3.org/2000/svg">
<path d="M43.2636 36.0741C42.0599 33.676 40.9581 31.5186 39.884 29.3612C38.8655 27.3149 37.8747 25.25 36.847 23.2037C35.5044 20.5278 34.1062 17.8797 32.8099 15.1852C31.9581 13.3982 31.0044 11.7315 29.2729 10.6482C29.1155 10.5463 29.0044 10.3704 28.7451 10.0834H39.847C38.5877 12.2223 39.5784 14.0371 40.5322 15.9352C42.2822 19.426 43.9118 22.9723 45.5877 26.4908C45.9673 27.2778 46.3007 28.0926 46.7544 28.8334C47.1803 29.5186 47.0692 30.0926 46.6803 30.6945C45.5877 32.4167 44.4859 34.1389 43.2544 36.0741H43.2636Z" fill="#F63233"/>
<path d="M57.2178 35.4167C56.0881 33.0926 55.0789 31 54.0604 28.9167C52.2548 25.2315 50.44 21.537 48.6252 17.8518C48.1807 16.9444 47.6715 16.0648 47.2641 15.1389C46.4307 13.25 45.3289 11.5926 43.5418 10.4722C43.44 10.4074 43.3844 10.2778 43.2178 10.0555H54.3474C52.7641 12.7129 54.477 14.7963 55.4863 16.9629C57.227 20.7129 59.0881 24.4167 60.903 28.1389C61.2641 28.8796 61.19 29.5092 60.7085 30.1944C59.5511 31.8426 58.4678 33.537 57.227 35.4074L57.2178 35.4167Z" fill="#F63233"/>
<path d="M58.0039 10H71.2539C68.6613 13.5741 66.1798 16.9815 63.5317 20.6296C62.7169 19.1019 62.0132 17.7963 61.2446 16.3611C61.865 16.0556 62.4484 15.7778 63.0687 15.4815C63.3465 15.8796 63.5872 16.2315 63.9576 16.7593C64.4391 16.1481 64.8465 15.6389 65.2354 15.1204C65.8187 14.3426 66.4206 13.5741 66.9669 12.7685C67.1891 12.4444 67.4298 11.8796 66.7632 11.8611C65.1521 11.8148 63.5317 11.9074 61.9206 11.9537C61.8372 11.9537 61.7539 12.0556 61.5965 12.1574C61.7076 12.5185 61.828 12.8796 61.9761 13.3333C61.4113 13.6574 60.8465 13.9815 60.2261 14.3333C59.5039 12.9074 58.828 11.5833 58.0224 10.0093L58.0039 10Z" fill="#523080"/>
<path d="M11.209 42.7694V47.1102C11.209 47.7515 11.4222 48.2902 11.8486 48.7264C12.2783 49.1594 12.8105 49.3759 13.4453 49.3759C14.0768 49.3759 14.6074 49.1594 15.0371 48.7264C15.4668 48.2935 15.6816 47.7548 15.6816 47.1102V42.7694C15.6816 42.6848 15.7256 42.6425 15.8135 42.6425H16.3701C16.458 42.6425 16.502 42.6848 16.502 42.7694V47.1346C16.502 47.7108 16.3685 48.23 16.1016 48.6923C15.8379 49.1578 15.4733 49.5223 15.0078 49.786C14.5423 50.0464 14.0215 50.1766 13.4453 50.1766C13.0189 50.1766 12.6169 50.1001 12.2393 49.9471C11.8617 49.7941 11.5345 49.5793 11.2578 49.3026C10.9876 49.0259 10.776 48.6971 10.623 48.3163C10.4701 47.9322 10.3936 47.5269 10.3936 47.1005V42.7694C10.3936 42.6848 10.4342 42.6425 10.5156 42.6425H11.0918C11.1699 42.6425 11.209 42.6848 11.209 42.7694ZM24.0947 42.6425H24.6611C24.7458 42.6425 24.7881 42.6831 24.7881 42.7645V49.9764C24.7881 50.0253 24.7751 50.0627 24.749 50.0887C24.723 50.118 24.6888 50.1327 24.6465 50.1327H24.6416C24.5765 50.1327 24.5049 50.0936 24.4268 50.0155L19.2559 44.3905V49.9618C19.2559 50.0432 19.2168 50.0839 19.1387 50.0839H18.5674C18.4795 50.0839 18.4355 50.0432 18.4355 49.9618V42.745C18.4355 42.6994 18.4486 42.6636 18.4746 42.6376C18.5007 42.6083 18.5348 42.5936 18.5771 42.5936H18.582C18.6341 42.5936 18.7025 42.6376 18.7871 42.7255L23.9678 48.3553V42.7645C23.9678 42.6831 24.0101 42.6425 24.0947 42.6425ZM27.7031 42.7645V49.9618C27.7031 50.0432 27.6608 50.0839 27.5762 50.0839H27.0049C26.9268 50.0839 26.8877 50.0432 26.8877 49.9618V42.7645C26.8877 42.6831 26.9268 42.6425 27.0049 42.6425H27.5762C27.6608 42.6425 27.7031 42.6831 27.7031 42.7645ZM35.4619 42.6425H36.0283C36.113 42.6425 36.1553 42.6831 36.1553 42.7645V49.9764C36.1553 50.0253 36.1423 50.0627 36.1162 50.0887C36.0902 50.118 36.056 50.1327 36.0137 50.1327H36.0088C35.9437 50.1327 35.8721 50.0936 35.7939 50.0155L30.623 44.3905V49.9618C30.623 50.0432 30.584 50.0839 30.5059 50.0839H29.9346C29.8467 50.0839 29.8027 50.0432 29.8027 49.9618V42.745C29.8027 42.6994 29.8158 42.6636 29.8418 42.6376C29.8678 42.6083 29.902 42.5936 29.9443 42.5936H29.9492C30.0013 42.5936 30.0697 42.6376 30.1543 42.7255L35.335 48.3553V42.7645C35.335 42.6831 35.3773 42.6425 35.4619 42.6425ZM39.0703 49.2928H43.499C43.639 49.2928 43.709 49.3531 43.709 49.4735V49.9227C43.709 49.9683 43.6927 50.0057 43.6602 50.035C43.6309 50.0611 43.5902 50.0741 43.5381 50.0741H38.4111C38.307 50.0741 38.2549 50.022 38.2549 49.9178V42.8085C38.2549 42.7076 38.307 42.6571 38.4111 42.6571H43.4307C43.5446 42.6571 43.6016 42.7059 43.6016 42.8036V43.2772C43.6016 43.3814 43.5446 43.4335 43.4307 43.4335H39.0703V46.4999H42.625C42.7552 46.4999 42.8203 46.5536 42.8203 46.661V47.1053C42.8203 47.2063 42.7552 47.2567 42.625 47.2567H39.0703V49.2928ZM44.5342 43.2235V42.8036C44.5342 42.7059 44.5846 42.6571 44.6855 42.6571H49.6855C49.7799 42.6571 49.8271 42.7059 49.8271 42.8036V43.2235C49.8271 43.3277 49.7799 43.3798 49.6855 43.3798H47.5859V49.9276C47.5859 50.0318 47.5355 50.0839 47.4346 50.0839H46.9219C46.821 50.0839 46.7705 50.0318 46.7705 49.9276V43.3798H44.6855C44.5846 43.3798 44.5342 43.3277 44.5342 43.2235ZM61.1943 46.3827C61.1943 45.8521 61.2936 45.3524 61.4922 44.8837C61.694 44.4117 61.9626 44.0064 62.2979 43.6678C62.6396 43.3293 63.0465 43.0591 63.5186 42.8573C63.9873 42.6587 64.487 42.5594 65.0176 42.5594C65.5482 42.5594 66.0479 42.6587 66.5166 42.8573C66.9984 43.0624 67.4053 43.3326 67.7373 43.6678C68.0758 44.0031 68.346 44.4084 68.5479 44.8837C68.7464 45.3524 68.8457 45.8521 68.8457 46.3827C68.8457 46.91 68.7464 47.4081 68.5479 47.8768C68.3493 48.3456 68.0791 48.7476 67.7373 49.0829C67.4085 49.4117 67.0016 49.6786 66.5166 49.8837C66.0446 50.079 65.5449 50.1766 65.0176 50.1766C64.4935 50.1766 63.9938 50.079 63.5186 49.8837C63.0433 49.6818 62.6364 49.4149 62.2979 49.0829C61.9593 48.7443 61.6908 48.3423 61.4922 47.8768C61.2936 47.4081 61.1943 46.91 61.1943 46.3827ZM62.0098 46.3827C62.0098 46.9361 62.1416 47.439 62.4053 47.8915C62.6755 48.3505 63.0384 48.7102 63.4941 48.9706C63.9596 49.231 64.4674 49.3612 65.0176 49.3612C65.5677 49.3612 66.0755 49.231 66.541 48.9706C67 48.7102 67.363 48.3505 67.6299 47.8915C67.8968 47.439 68.0303 46.9361 68.0303 46.3827C68.0303 45.826 67.8968 45.3199 67.6299 44.8641C67.3662 44.4019 67.0033 44.0389 66.541 43.7753C66.0788 43.5083 65.571 43.3749 65.0176 43.3749C64.6107 43.3749 64.2201 43.453 63.8457 43.6093C63.4714 43.7622 63.1491 43.9738 62.8789 44.244C62.6087 44.5142 62.3955 44.8365 62.2393 45.2108C62.0863 45.5819 62.0098 45.9725 62.0098 46.3827ZM74.666 47.7987L75.7061 49.8983C75.7321 49.9471 75.7337 49.9911 75.7109 50.0302C75.6914 50.066 75.6556 50.0839 75.6035 50.0839H75.0127C74.9378 50.0839 74.8809 50.0415 74.8418 49.9569L73.9385 48.0868C73.6715 48.1519 73.3997 48.1844 73.123 48.1844H71.2383V49.9276C71.2383 50.0318 71.1878 50.0839 71.0869 50.0839H70.5791C70.4749 50.0839 70.4229 50.0318 70.4229 49.9276V42.8036C70.4229 42.7027 70.4749 42.6522 70.5791 42.6522H70.7109H71.1162H73.123C73.6634 42.6457 74.1549 42.7645 74.5977 43.0087C75.0436 43.2496 75.3919 43.5848 75.6426 44.0145C75.8932 44.4442 76.0137 44.9195 76.0039 45.4403C76.0039 45.9514 75.8851 46.4136 75.6475 46.827C75.4098 47.2339 75.0827 47.5578 74.666 47.7987ZM71.2383 47.4911H73.0742C73.6927 47.4911 74.1989 47.299 74.5928 46.9149C74.9899 46.5275 75.1885 46.0344 75.1885 45.4354C75.1885 44.8397 74.9867 44.3498 74.583 43.9657C74.1761 43.5751 73.6732 43.3798 73.0742 43.3798H71.2383V47.4911ZM80.877 44.8837L83.8506 49.8885C83.8831 49.9406 83.888 49.9878 83.8652 50.0302C83.8457 50.0692 83.8083 50.0887 83.7529 50.0887H83.1133C83.0612 50.0887 83.0075 50.0546 82.9521 49.9862L80.2764 45.4452L78.582 47.0175V49.9618C78.582 50.0432 78.5413 50.0839 78.46 50.0839H77.8936C77.8089 50.0839 77.7666 50.0432 77.7666 49.9618V42.7645C77.7666 42.6831 77.8089 42.6425 77.8936 42.6425H78.46C78.5413 42.6425 78.582 42.6831 78.582 42.7645V45.9774L82.0928 42.7645C82.1644 42.6929 82.2393 42.6571 82.3174 42.6571H82.9717C83.0335 42.6571 83.0726 42.6831 83.0889 42.7352C83.1051 42.7841 83.0905 42.8296 83.0449 42.8719L80.877 44.8837ZM87.3857 50.1766C86.8747 50.1766 86.3734 50.0594 85.8818 49.8251C85.3903 49.5874 85.0192 49.2896 84.7686 48.9315C84.7067 48.8436 84.7165 48.7639 84.7979 48.6923L85.1445 48.3456C85.2129 48.2935 85.291 48.313 85.3789 48.4042C85.6003 48.6841 85.8965 48.9201 86.2676 49.1122C86.6387 49.2977 87 49.3905 87.3516 49.3905C87.8984 49.3905 88.3265 49.2733 88.6357 49.0389C88.9417 48.8013 89.0947 48.4742 89.0947 48.0575C89.0947 47.7906 88.9792 47.5497 88.748 47.3348C88.6504 47.2404 88.5137 47.1477 88.3379 47.0565C88.1361 46.9491 87.9701 46.8693 87.8398 46.8173L87.2393 46.5829C86.9365 46.4722 86.6973 46.3778 86.5215 46.2997C86.3197 46.2053 86.1195 46.0979 85.9209 45.9774C85.7223 45.8505 85.5612 45.7186 85.4375 45.5819C85.1673 45.2662 85.0322 44.8934 85.0322 44.4637C85.0322 43.8941 85.2454 43.4351 85.6719 43.0868C86.0951 42.7352 86.6663 42.5594 87.3857 42.5594C87.7894 42.5594 88.1784 42.6359 88.5527 42.7889C88.9303 42.9419 89.2168 43.1405 89.4121 43.3846C89.4837 43.4758 89.4886 43.5588 89.4268 43.6337L89.1436 43.9559C89.0719 44.0438 88.9743 44.0406 88.8506 43.9462C88.6846 43.7574 88.4665 43.6093 88.1963 43.5018C87.9261 43.3944 87.6445 43.3407 87.3516 43.3407C86.8828 43.3407 86.5133 43.4465 86.2432 43.6581C85.973 43.8697 85.8379 44.1415 85.8379 44.4735C85.8379 44.7437 85.9567 44.9911 86.1943 45.2157C86.3018 45.3134 86.4368 45.4061 86.5996 45.494C86.7689 45.5852 86.93 45.6633 87.083 45.7284C87.1253 45.7479 87.3125 45.8195 87.6445 45.9432C87.8073 46.0018 87.9717 46.0637 88.1377 46.1288C88.5023 46.2622 88.8034 46.4071 89.041 46.5634C89.3372 46.7554 89.5553 46.9589 89.6953 47.1737C89.8613 47.4244 89.9443 47.7141 89.9443 48.0428C89.9443 48.6939 89.7116 49.2131 89.2461 49.6005C88.7839 49.9846 88.1637 50.1766 87.3857 50.1766Z" fill="white"/>
<path d="M59.9785 42.6522H60.5596C60.6214 42.6522 60.6621 42.6701 60.6816 42.7059C60.7044 42.7417 60.7028 42.7873 60.6768 42.8427L57.5176 50.0253C57.4753 50.1262 57.4118 50.1766 57.3271 50.1766H57.3125C57.2246 50.1766 57.1595 50.1262 57.1172 50.0253L55.5352 46.4999L53.9824 50.0253C53.9434 50.1262 53.8799 50.1766 53.792 50.1766H53.7773C53.6895 50.1766 53.626 50.1262 53.5869 50.0253L50.4229 42.8378C50.4001 42.7824 50.3984 42.7385 50.418 42.7059C50.4408 42.6701 50.4814 42.6522 50.54 42.6522H51.1113C51.1829 42.6522 51.2415 42.6945 51.2871 42.7792L53.7871 48.619L56.2871 42.7841C56.3262 42.6962 56.3815 42.6522 56.4531 42.6522H57.0244C57.0863 42.6522 57.127 42.6701 57.1465 42.7059C57.1693 42.7417 57.1693 42.7873 57.1465 42.8427L55.9648 45.5233L57.3174 48.7216L59.8223 42.7841C59.8581 42.6962 59.9102 42.6522 59.9785 42.6522Z" fill="#FF3131"/>
</svg>
